<?xml version="1.0" encoding="UTF-8" standalone="no"?>
<svg
   xmlns:bx="https://boxy-svg.com"
   xmlns:dc="http://purl.org/dc/elements/1.1/"
   xmlns:cc="http://creativecommons.org/ns#"
   xmlns:rdf="http://www.w3.org/1999/02/22-rdf-syntax-ns#"
   xmlns:svg="http://www.w3.org/2000/svg"
   xmlns="http://www.w3.org/2000/svg"
   xmlns:sodipodi="http://sodipodi.sourceforge.net/DTD/sodipodi-0.dtd"
   xmlns:inkscape="http://www.inkscape.org/namespaces/inkscape"
   width="210mm"
   height="297mm"
   id="svg2"
   version="1.1"
   enable-background="new"
   viewBox="-2.3128662109375 -3.4693145751953125 1024 600"
   sodipodi:docname="studio.svg"
   inkscape:version="0.92.2 5c3e80d, 2017-08-06">
  <metadata
     id="metadata180">
    <rdf:RDF>
      <cc:Work
         rdf:about="">
        <dc:format>image/svg+xml</dc:format>
        <dc:type
           rdf:resource="http://purl.org/dc/dcmitype/StillImage" />
      </cc:Work>
    </rdf:RDF>
  </metadata>
  <sodipodi:namedview
     pagecolor="#ffffff"
     bordercolor="#666666"
     borderopacity="1"
     objecttolerance="10"
     gridtolerance="10"
     guidetolerance="10"
     inkscape:pageopacity="0"
     inkscape:pageshadow="2"
     inkscape:window-width="1562"
     inkscape:window-height="1009"
     id="namedview178"
     showgrid="false"
     inkscape:zoom="0.84096521"
     inkscape:cx="396.85039"
     inkscape:cy="561.25984"
     inkscape:window-x="0"
     inkscape:window-y="0"
     inkscape:window-maximized="0"
     inkscape:current-layer="svg2" />
  <defs
     id="defs4">
    <filter
       style="color-interpolation-filters:sRGB"
       id="filter4324">
      <feBlend
         mode="lighten"
         in2="BackgroundImage"
         id="feBlend4326" />
    </filter>
    <pattern
       id="pattern-0"
       x="0"
       y="0"
       width="20"
       height="20"
       patternUnits="userSpaceOnUse"
       viewBox="0 0 100 100">
      <path
         d="M 0 0 L 50 0 L 50 100 L 0 100 Z"
         style="fill: black;"
         id="path4168" />
    </pattern>
    <style
       type="text/css"
       id="style4171">
	.st0{fill:#020203;}
</style>
  </defs>
  <g
     id="layer5"
     transform="matrix(0, -0.997059, 0.997059, 0, -20.503099, 666.903198)">
    <title
       id="title4174">Motion Areas</title>
    <path
       style="fill-rule: evenodd; stroke-width: 0; stroke-linecap: butt; stroke-linejoin: miter; stroke-miterlimit: 4; stroke-dasharray: none; fill: none;"
       d="M 194.466,57.365 H 311.124 V 301.816 H 154.557 V 125.044 h 41.955 z"
       id="binary_sensor.bathroom_motion">
      <title
         id="title4176">Bathroom</title>
    </path>
    <path
       style="fill-rule: evenodd; stroke: rgb(0, 0, 0); stroke-width: 0; stroke-linecap: butt; stroke-linejoin: miter; stroke-opacity: 1; stroke-miterlimit: 4; stroke-dasharray: none; fill: none;"
       d="M 424.599 57.069 L 431.537 35.284 L 651.548 34.128 L 651.548 155.347 L 425.755 156.503 L 424.599 57.069 Z"
       id="binary_sensor.closet_motion">
      <title
         id="title4179">Closet</title>
    </path>
    <path
       style="fill-rule: evenodd; stroke: rgb(0, 0, 0); stroke-width: 0; stroke-linecap: butt; stroke-linejoin: miter; stroke-miterlimit: 4; stroke-dasharray: none; stroke-opacity: 1; fill: none;"
       d="M 154.553,302.829 H 338.401 V 532.134 H 152.533 Z"
       id="binary_sensor.kitchen_motion_meta">
      <title
         id="title4182">Kitchen</title>
    </path>
    <path
       style="fill-rule: evenodd; stroke: rgb(0, 0, 0); stroke-width: 0; stroke-linecap: butt; stroke-linejoin: miter; stroke-miterlimit: 4; stroke-dasharray: none; stroke-opacity: 1; fill: none;"
       d="M 307.155,56.66 H 429.988 V 206.92155 H 394.037 V 312.10453 H 311.649 Z"
       id="binary_sensor.entry_motion">
      <title
         id="title4185">Entry</title>
    </path>
    <rect
       style="stroke-width: 3; stroke-miterlimit: 4; stroke-dasharray: none; fill: none;"
       id="rect4224"
       width="218.571"
       height="142.857"
       x="431.429"
       y="156.648">
      <title
         id="title4188">Bedroom</title>
    </rect>
    <rect
       x="154.55701"
       y="531.12299"
       width="194.82681"
       height="200.90306"
       id="binary_sensor.office_motion"
       style="fill: none;">
      <title
         id="title4191">Office</title>
    </rect>
    <rect
       x="335.371"
       y="308.301"
       width="315.168"
       height="294.204"
       id="binary_sensor.dining_motion_meta"
       style="fill: none;"
       transform="matrix(1, 0.000466, 0, 1, 0.000002, -5.244338)">
      <title
         id="title4195">Dining</title>
    </rect>
    <path
       d="m 283.50488,974.6483 35.94614,1.20389 3.06798,48.53381 h 94.965 l -1.156,-48.487 h 55.645 l 1.158,48.98 113.401,-1.157 -1.157,-51.089 66.054,-1.156 -1.51267,-368.972 -314.54533,0 v 112.70563 l -49.657,-2.46657 z"
       style="stroke-width: 1.02837px; fill: none;"
       id="binary_sensor.livingroom_motion_meta">
      <title
         id="title4199">Living Room</title>
    </path>
  </g>
  <g
     id="layer4"
     transform="matrix(0, -0.997059, 0.997059, 0, -20.503035, 666.784546)">
    <title
       id="title4210">Furniture</title>
    <rect
       style="stroke-width: 3; stroke-miterlimit: 4; stroke-dasharray: none; fill: rgb(222, 238, 242);"
       id="rect4222"
       width="249.99998"
       height="25.714285"
       x="398.57141"
       y="35.790775" />
    <rect
       style="stroke-width: 3; stroke-miterlimit: 4; stroke-dasharray: none; fill: rgb(222, 238, 242);"
       id="rect4226"
       width="16.259"
       height="121.429"
       x="312"
       y="90.934" />
    <rect
       style="stroke-width: 3; stroke-miterlimit: 4; stroke-dasharray: none; fill: rgb(222, 238, 242);"
       id="rect4228"
       width="38.911"
       height="98.571"
       x="393.541"
       y="199.505" />
    <rect
       style="stroke-width: 3; stroke-miterlimit: 4; stroke-dasharray: none; fill: rgb(222, 238, 242);"
       id="rect4230"
       width="257.5889"
       height="33.335033"
       x="392.94934"
       y="302.80872" />
    <rect
       style="stroke-width: 3; stroke-miterlimit: 4; stroke-dasharray: none; fill: rgb(222, 238, 242);"
       id="rect4232"
       width="111.7085"
       height="57.578693"
       x="194.95944"
       y="59.382252" />
    <rect
       style="stroke-width: 3; stroke-miterlimit: 4; stroke-dasharray: none; fill: rgb(222, 238, 242);"
       id="rect4236"
       width="158.594"
       height="47.624"
       x="155.563"
       y="300.662" />
    <rect
       style="stroke-width: 3; stroke-miterlimit: 4; stroke-dasharray: none; fill: rgb(222, 238, 242);"
       id="rect4238"
       width="56.463"
       height="179.807"
       x="156.533"
       y="348.286" />
    <rect
       style="stroke-width: 3; stroke-miterlimit: 4; stroke-dasharray: none; fill: rgb(222, 238, 242);"
       id="rect4240"
       width="24.244"
       height="175.913"
       x="314.157"
       y="302.683" />
    <rect
       x="154.963"
       y="185.03"
       width="48.571"
       height="112.175"
       id="rect4220"
       style="fill: rgb(222, 238, 242);" />
    <rect
       style="stroke-width: 3; stroke-miterlimit: 4; stroke-dasharray: none; fill: rgb(222, 238, 242);"
       id="rect4242"
       width="125.405"
       height="23.234"
       x="212.996"
       y="503.849" />
    <rect
       style="stroke-width: 3; stroke-miterlimit: 4; stroke-dasharray: none; fill: rgb(222, 238, 242);"
       id="rect4244"
       width="56.276"
       height="200.184"
       x="155.563"
       y="530.113" />
    <rect
       style="stroke-width: 3; stroke-miterlimit: 4; stroke-dasharray: none; fill: rgb(222, 238, 242);"
       id="rect4246"
       width="64.956"
       height="73.197"
       x="708.33"
       y="740.866"
       transform="matrix(1, 0, 0, 1.000001, -123.90448, -210.651558)" />
    <rect
       style="stroke-width: 3; stroke-miterlimit: 4; stroke-dasharray: none; fill: rgb(222, 238, 242);"
       id="rect4248"
       width="38.386"
       height="159.952"
       x="609.686"
       y="741.757"
       bx:origin="0.53 0.657" />
    <rect
       style="stroke-width: 3; stroke-miterlimit: 4; stroke-dasharray: none; fill: rgb(222, 238, 242);"
       id="rect4250"
       width="65.659912"
       height="160.61426"
       x="285.87317"
       y="754.36719" />
    <rect
       style="stroke-width: 3; stroke-miterlimit: 4; stroke-dasharray: none; fill: rgb(222, 238, 242);"
       id="rect4252"
       width="176.777"
       height="65.353"
       x="382.409"
       y="663.921" />
    <rect
       style="stroke-width: 3; stroke-miterlimit: 4; stroke-dasharray: none; fill: rgb(222, 238, 242);"
       id="rect4254"
       width="41.416256"
       height="103.03556"
       x="421.23361"
       y="782.65143" />
    <ellipse
       cx="521.181"
       cy="444.562"
       rx="77.074"
       ry="77.074"
       id="ellipse47"
       style="fill: rgb(222, 238, 242);" />
  </g>
  <g
     id="layer6"
     transform="matrix(0, -0.997059, 0.997059, 0, -20.503035, 666.784546)">
    <title
       id="title4204">Openings</title>
    <path
       style="fill-rule: evenodd; stroke: rgb(0, 0, 0); stroke-width: 0; stroke-linecap: butt; stroke-linejoin: miter; stroke-miterlimit: 4; stroke-dasharray: none; stroke-opacity: 1; fill: none;"
       d="M 308.368 59.233 L 387.619 106.308 L 394.286 58.076 L 308.368 59.233 Z"
       id="binary_sensor.front_door">
      <title
         id="title4206">Front Door</title>
    </path>
  </g>
  <path
     d="M 258.556 54.739 C 259.057 53.58 259.309 52.376 259.309 51.149 L 259.309 37.066 C 259.309 35.839 259.057 34.636 258.556 33.478 C 258.977 33.001 259.326 32.4 259.58 31.705 C 260.193 30.026 259.855 28.996 259.459 28.43 C 258.742 27.404 257.306 27.133 255.624 27.748 C 254.935 28 254.337 28.349 253.862 28.768 C 252.857 28.351 251.824 28.139 250.777 28.139 L 218.501 28.139 C 217.402 28.139 216.318 28.373 215.266 28.837 C 214.778 28.385 214.154 28.016 213.424 27.748 C 211.742 27.138 210.307 27.409 209.589 28.43 C 209.195 28.996 208.854 30.023 209.468 31.705 C 209.752 32.487 210.157 33.143 210.654 33.64 C 210.2 34.755 209.971 35.902 209.971 37.066 L 209.971 51.149 C 209.971 52.313 210.2 53.462 210.654 54.573 C 210.157 55.073 209.752 55.731 209.468 56.508 C 208.852 58.193 209.192 59.219 209.589 59.785 C 210.305 60.808 211.74 61.077 213.424 60.472 C 214.154 60.2 214.778 59.833 215.263 59.381 C 216.315 59.842 217.402 60.078 218.501 60.078 L 250.78 60.078 C 251.824 60.078 252.86 59.866 253.867 59.448 C 254.342 59.866 254.941 60.218 255.629 60.464 C 256.234 60.685 256.803 60.799 257.322 60.799 C 258.246 60.799 258.998 60.436 259.459 59.785 C 259.855 59.219 260.196 58.195 259.58 56.508 C 259.327 55.816 258.981 55.212 258.556 54.739 Z M 257.868 58.673 C 257.595 59.056 256.936 58.874 256.295 58.637 C 255.657 58.406 255.163 58.074 254.867 57.68 L 254.374 57.027 L 253.644 57.4 C 252.71 57.883 251.745 58.129 250.777 58.129 L 218.499 58.129 C 217.485 58.129 216.473 57.854 215.495 57.319 L 214.726 56.904 L 214.228 57.624 C 213.947 58.033 213.421 58.395 212.755 58.637 C 212.113 58.869 211.452 59.056 211.182 58.673 C 211.043 58.47 211.002 57.976 211.292 57.175 C 211.546 56.487 211.927 55.949 212.365 55.676 L 213.113 55.205 L 212.718 54.417 C 212.185 53.357 211.916 52.261 211.916 51.149 L 211.916 37.066 C 211.916 35.956 212.185 34.858 212.718 33.8 L 213.117 33.009 L 212.367 32.539 C 211.922 32.259 211.552 31.739 211.294 31.036 C 211.002 30.236 211.045 29.74 211.184 29.543 C 211.454 29.158 212.115 29.338 212.756 29.574 C 213.433 29.82 213.942 30.173 214.23 30.587 L 214.728 31.313 L 215.497 30.892 C 216.475 30.355 217.486 30.083 218.501 30.083 L 250.779 30.083 C 251.747 30.083 252.71 30.327 253.649 30.81 L 254.376 31.185 L 254.873 30.532 C 255.167 30.139 255.661 29.806 256.302 29.574 C 256.936 29.338 257.601 29.158 257.874 29.543 C 258.013 29.74 258.058 30.239 257.763 31.036 C 257.528 31.683 257.194 32.18 256.798 32.476 L 256.132 32.971 L 256.515 33.704 C 257.081 34.785 257.366 35.918 257.366 37.066 L 257.366 51.149 C 257.366 52.297 257.082 53.426 256.515 54.511 L 256.132 55.242 L 256.798 55.741 C 257.194 56.028 257.528 56.529 257.763 57.175 C 258.052 57.977 258.006 58.471 257.868 58.673 Z"
     id="path4234"
     style="fill: rgb(214, 233, 239);">
    <title
       id="title4232">PIllow Bottom</title>
  </path>
  <path
     d="M 196.086 53.926 C 196.589 52.768 196.839 51.563 196.839 50.337 L 196.839 36.253 C 196.839 35.027 196.589 33.823 196.086 32.665 C 196.508 32.188 196.856 31.588 197.111 30.893 C 197.723 29.212 197.386 28.182 196.991 27.617 C 196.272 26.591 194.836 26.321 193.155 26.935 C 192.466 27.188 191.867 27.537 191.394 27.956 C 190.387 27.539 189.354 27.326 188.307 27.326 L 156.031 27.326 C 154.934 27.326 153.849 27.561 152.798 28.025 C 152.308 27.573 151.684 27.203 150.954 26.935 C 149.272 26.325 147.838 26.595 147.12 27.617 C 146.726 28.182 146.384 29.208 146.998 30.893 C 147.283 31.674 147.688 32.331 148.185 32.828 C 147.73 33.942 147.501 35.089 147.501 36.253 L 147.501 50.337 C 147.501 51.501 147.73 52.65 148.185 53.76 C 147.688 54.26 147.283 54.918 146.998 55.695 C 146.382 57.379 146.722 58.407 147.12 58.973 C 147.836 59.995 149.27 60.264 150.954 59.66 C 151.684 59.388 152.308 59.019 152.794 58.567 C 153.846 59.028 154.934 59.266 156.031 59.266 L 188.31 59.266 C 189.354 59.266 190.39 59.053 191.397 58.635 C 191.872 59.053 192.471 59.405 193.16 59.652 C 193.764 59.872 194.333 59.986 194.852 59.986 C 195.776 59.986 196.529 59.623 196.991 58.973 C 197.386 58.407 197.727 57.382 197.111 55.695 C 196.858 55.003 196.511 54.4 196.086 53.926 Z M 195.398 57.86 C 195.126 58.243 194.466 58.06 193.825 57.824 C 193.189 57.593 192.693 57.262 192.397 56.868 L 191.904 56.215 L 191.174 56.588 C 190.24 57.071 189.275 57.316 188.307 57.316 L 156.03 57.316 C 155.015 57.316 154.003 57.042 153.026 56.507 L 152.257 56.092 L 151.759 56.811 C 151.477 57.22 150.951 57.582 150.285 57.824 C 149.643 58.056 148.983 58.243 148.713 57.86 C 148.574 57.658 148.532 57.163 148.823 56.362 C 149.076 55.674 149.457 55.135 149.896 54.864 L 150.644 54.392 L 150.248 53.605 C 149.715 52.545 149.446 51.448 149.446 50.337 L 149.446 36.253 C 149.446 35.143 149.715 34.046 150.248 32.986 L 150.647 32.195 L 149.897 31.726 C 149.453 31.446 149.083 30.926 148.825 30.224 C 148.532 29.423 148.577 28.927 148.714 28.73 C 148.984 28.345 149.645 28.526 150.287 28.759 C 150.964 29.008 151.472 29.36 151.76 29.775 L 152.258 30.501 L 153.027 30.079 C 154.005 29.542 155.016 29.271 156.031 29.271 L 188.309 29.271 C 189.277 29.271 190.24 29.514 191.179 29.997 L 191.907 30.372 L 192.404 29.719 C 192.698 29.326 193.191 28.993 193.832 28.759 C 194.466 28.526 195.133 28.345 195.404 28.73 C 195.543 28.927 195.589 29.426 195.293 30.224 C 195.059 30.87 194.724 31.368 194.328 31.664 L 193.663 32.159 L 194.045 32.891 C 194.611 33.973 194.897 35.106 194.897 36.253 L 194.897 50.337 C 194.897 51.485 194.613 52.613 194.045 53.698 L 193.663 54.429 L 194.328 54.927 C 194.724 55.215 195.059 55.717 195.293 56.362 C 195.582 57.165 195.537 57.659 195.398 57.86 Z"
     id="path4238"
     style="fill: rgb(214, 233, 239);">
    <title
       id="title4236">Pillow Top</title>
  </path>
  <path
     d="M 369.459 508.911 L 369.459 457.091 L 422.028 457.091 L 422.028 508.911 L 369.459 508.911 Z M 384.244 460.665 C 379.233 460.665 375.208 465.043 375.208 470.493 C 375.208 475.943 379.233 480.321 384.244 480.321 C 389.254 480.321 393.279 475.943 393.279 470.493 C 393.279 465.043 389.254 460.665 384.244 460.665 Z M 384.244 476.747 C 381.04 476.747 378.494 473.978 378.494 470.493 C 378.494 467.008 381.04 464.239 384.244 464.239 C 387.447 464.239 389.994 467.008 389.994 470.493 C 389.994 473.978 387.447 476.747 384.244 476.747 Z M 384.244 465.579 C 381.779 465.579 379.727 467.813 379.727 470.493 C 379.727 473.173 381.779 475.406 384.244 475.406 C 386.708 475.406 388.762 473.173 388.762 470.493 C 388.762 467.813 386.708 465.579 384.244 465.579 Z M 384.244 471.833 C 383.587 471.833 383.012 471.208 383.012 470.493 C 383.012 469.778 383.587 469.153 384.244 469.153 C 384.901 469.153 385.476 469.778 385.476 470.493 C 385.476 471.208 384.901 471.833 384.244 471.833 Z M 407.243 465.579 C 404.779 465.579 402.726 467.813 402.726 470.493 C 402.726 473.173 404.779 475.406 407.243 475.406 C 409.707 475.406 411.761 473.173 411.761 470.493 C 411.761 467.813 409.707 465.579 407.243 465.579 Z M 407.243 471.833 C 406.586 471.833 406.011 471.208 406.011 470.493 C 406.011 469.778 406.586 469.153 407.243 469.153 C 407.901 469.153 408.476 469.778 408.476 470.493 C 408.476 471.208 407.901 471.833 407.243 471.833 Z M 407.243 490.596 C 404.779 490.596 402.726 492.829 402.726 495.509 C 402.726 498.189 404.779 500.423 407.243 500.423 C 409.707 500.423 411.761 498.189 411.761 495.509 C 411.761 492.829 409.707 490.596 407.243 490.596 Z M 407.243 496.849 C 406.586 496.849 406.011 496.224 406.011 495.509 C 406.011 494.794 406.586 494.169 407.243 494.169 C 407.901 494.169 408.476 494.794 408.476 495.509 C 408.476 496.224 407.901 496.849 407.243 496.849 Z M 384.244 490.596 C 381.779 490.596 379.727 492.829 379.727 495.509 C 379.727 498.189 381.779 500.423 384.244 500.423 C 386.708 500.423 388.762 498.189 388.762 495.509 C 388.762 492.829 386.708 490.596 384.244 490.596 Z M 384.244 496.849 C 383.587 496.849 383.012 496.224 383.012 495.509 C 383.012 494.794 383.587 494.169 384.244 494.169 C 384.901 494.169 385.476 494.794 385.476 495.509 C 385.476 496.224 384.901 496.849 384.244 496.849 Z M 407.243 460.665 C 402.233 460.665 398.208 465.043 398.208 470.493 C 398.208 475.943 402.233 480.321 407.243 480.321 C 412.254 480.321 416.279 475.943 416.279 470.493 C 416.279 465.043 412.254 460.665 407.243 460.665 Z M 407.243 476.747 C 404.039 476.747 401.494 473.978 401.494 470.493 C 401.494 467.008 404.039 464.239 407.243 464.239 C 410.447 464.239 412.993 467.008 412.993 470.493 C 412.993 473.978 410.447 476.747 407.243 476.747 Z M 384.244 485.681 C 379.233 485.681 375.208 490.059 375.208 495.509 C 375.208 500.959 379.233 505.337 384.244 505.337 C 389.254 505.337 393.279 500.959 393.279 495.509 C 393.279 490.059 389.254 485.681 384.244 485.681 Z M 384.244 501.762 C 381.04 501.762 378.494 498.994 378.494 495.509 C 378.494 492.025 381.04 489.255 384.244 489.255 C 387.447 489.255 389.994 492.025 389.994 495.509 C 389.994 498.994 387.447 501.762 384.244 501.762 Z M 407.243 485.681 C 402.233 485.681 398.208 490.059 398.208 495.509 C 398.208 500.959 402.233 505.337 407.243 505.337 C 412.254 505.337 416.279 500.959 416.279 495.509 C 416.279 490.059 412.254 485.681 407.243 485.681 Z M 407.243 501.762 C 404.039 501.762 401.494 498.994 401.494 495.509 C 401.494 492.025 404.039 489.255 407.243 489.255 C 410.447 489.255 412.993 492.025 412.993 495.509 C 412.993 498.994 410.447 501.762 407.243 501.762 Z"
     id="path4243"
     transform="matrix(0, -1, 1, 0, -87.25747, 878.744543)"
     style="fill-opacity: 0.5; fill: none;" />
  <g
     id="layer3"
     style="display: inline; filter: url(#filter4324);"
     transform="matrix(0, -0.997059, 0.997059, 0, -20.503035, 666.784546)">
    <title
       id="title4245">Interior Walls</title>
    <path
       style="fill: none; fill-rule: evenodd; stroke-miterlimit: 4; stroke-dasharray: none; stroke-opacity: 1; stroke: rgb(88, 193, 240); stroke-linecap: square; stroke-linejoin: round; stroke-width: 6;"
       d="M 397.143 35.219 L 651.429 35.219 L 651.429 971.477 L 585.375 972.633 L 586.532 1023.722 L 473.131 1024.879 L 471.973 975.899 L 416.328 975.899 L 417.484 1024.386 L 322.519 1024.386 L 322.519 975.968 L 285.714 975.968 L 285.714 732.362 L 154.286 732.362 L 154.286 126.648 L 193.749 126.175 L 193.749 58.076 L 337.391 58.076 L 373.756 58.076 L 397.143 58.076 L 397.143 35.219 Z"
       id="path3403" />
    <path
       style="fill: none; fill-rule: evenodd; stroke-miterlimit: 4; stroke-dasharray: none; stroke-opacity: 1; stroke: rgb(88, 193, 240); stroke-linejoin: round; stroke-width: 6; stroke-linecap: round;"
       d="M 309.107 58.372 L 309.107 236.159"
       id="path4205" />
    <path
       style="fill: none; fill-rule: evenodd; stroke-miterlimit: 4; stroke-dasharray: none; stroke-opacity: 1; stroke: rgb(88, 193, 240); stroke-linejoin: round; stroke-width: 6; stroke-linecap: round;"
       d="M 396.565 300.809 L 648.518 300.809"
       id="path4207" />
    <path
       style="fill: none; fill-rule: evenodd; stroke-miterlimit: 4; stroke-dasharray: none; stroke-opacity: 1; stroke: rgb(88, 193, 240); stroke-linejoin: round; stroke-width: 6; stroke-linecap: round;"
       d="M 648.948 155.354 L 430.347 155.354 L 430.347 256.355"
       id="path4215" />
    <path
       style="fill: none; fill-rule: evenodd; stroke-miterlimit: 4; stroke-dasharray: none; stroke-opacity: 1; stroke: rgb(88, 193, 240); stroke-linejoin: round; stroke-width: 6; stroke-linecap: round;"
       d="M 158.639 529.505 L 334.286 529.505"
       id="path4219" />
    <path
       style="fill: none; fill-rule: evenodd; stroke-miterlimit: 4; stroke-dasharray: none; stroke-opacity: 1; stroke: rgb(88, 193, 240); stroke-linejoin: round; stroke-width: 6; stroke-linecap: round;"
       d="M 157.755 299.206 L 317.755 299.206"
       id="path4335" />
  </g>
  <circle
     cx="185.138"
     cy="330.851"
     style="fill: rgb(255, 255, 255); stroke: rgb(177, 177, 177); stroke-width: 3;"
     transform="matrix(0, -0.997058, 0.997059, 0, -20.50279, 666.784668)"
     id="switch.coffeemaker"
     r="22.55">
    <title
       id="title4254">Coffe Circle</title>
  </circle>
  <path
     d="M 313.015 475.351 C 313.049 475.588 312.855 475.816 312.584 475.848 C 312.313 475.871 312.065 475.7 312.03 475.463 C 311.973 475.067 311.871 474.614 311.77 474.161 C 311.396 472.565 311.011 470.889 312.187 469.894 C 313.411 468.874 312.901 467.676 312.403 466.464 C 312.279 466.18 312.165 465.896 312.052 465.582 C 311.973 465.355 312.108 465.094 312.37 465.026 C 312.63 464.958 312.914 465.083 312.992 465.32 C 313.083 465.569 313.197 465.864 313.321 466.147 C 313.941 467.63 315.393 469.306 313.683 470.733 C 312.925 471.377 312.415 472.633 312.733 473.981 C 312.834 474.445 312.936 474.897 313.015 475.351 L 313.015 475.351 Z M 308.555 475.351 C 308.6 475.588 308.409 475.816 308.134 475.848 C 307.864 475.871 307.613 475.7 307.582 475.463 C 307.525 475.067 307.421 474.614 307.32 474.161 C 306.948 472.577 306.562 470.889 307.74 469.894 C 308.962 468.874 308.452 467.676 307.954 466.464 C 307.831 466.18 307.706 465.896 307.604 465.582 C 307.525 465.355 307.672 465.094 307.92 465.026 C 308.181 464.958 308.463 465.083 308.543 465.32 C 308.624 465.569 308.745 465.864 308.872 466.147 C 309.494 467.63 310.717 469.306 309.009 470.733 C 308.238 471.377 307.967 472.633 308.272 473.981 C 308.385 474.445 308.486 474.897 308.555 475.351 L 308.555 475.351 Z M 304.491 475.351 C 304.422 474.909 304.321 474.445 304.218 473.981 C 303.902 472.633 304.311 471.207 305.079 470.551 C 306.788 469.124 305.432 467.64 304.807 466.158 C 304.683 465.864 304.571 465.582 304.479 465.32 C 304.389 465.083 304.117 464.958 303.857 465.026 C 303.608 465.105 303.449 465.355 303.539 465.592 C 303.651 465.896 303.766 466.18 303.89 466.475 C 304.389 467.676 304.9 468.874 303.676 469.905 C 302.498 470.889 302.883 472.577 303.257 474.173 C 303.348 474.626 303.459 475.067 303.517 475.463 C 303.552 475.713 303.801 475.882 304.073 475.848 C 304.33 475.816 304.525 475.588 304.491 475.351 L 304.491 475.351 Z M 319.59 480.138 C 328.637 478.757 329.791 490.011 318.108 492.614 C 317.373 494.006 316.4 495.251 315.233 496.291 C 314.757 496.711 314.201 496.926 313.559 496.926 L 303.267 496.926 C 302.622 496.926 302.069 496.723 301.58 496.291 C 298.923 493.915 297.234 490.451 297.234 486.59 L 297.234 480.218 C 297.234 480.081 297.234 479.946 297.223 479.809 C 297.212 479.424 297.347 479.075 297.619 478.791 C 297.902 478.508 298.241 478.372 298.639 478.372 L 318.187 478.372 C 318.585 478.372 318.924 478.508 319.195 478.791 C 319.467 479.075 319.603 479.424 319.59 479.809 C 319.59 479.925 319.59 480.026 319.59 480.138 L 319.59 480.138 Z M 319.174 489.851 C 324.096 488.481 326.498 481.237 319.59 482.742 L 319.59 486.59 C 319.59 487.724 319.445 488.81 319.174 489.851 L 319.174 489.851 Z M 304.367 492.658 C 303.584 491.888 302.963 490.926 302.544 489.839 C 302.125 488.742 301.898 487.519 301.898 486.229 L 301.898 481.18 C 301.898 480.637 301.458 480.195 300.914 480.195 C 300.359 480.195 299.917 480.637 299.917 481.18 L 299.917 486.229 C 299.917 487.746 300.188 489.218 300.709 490.552 C 301.229 491.888 302.001 493.088 302.975 494.062 C 303.369 494.447 303.994 494.436 304.377 494.05 C 304.752 493.666 304.74 493.031 304.367 492.658 Z"
     style="fill: rgb(177, 177, 177);"
     id="path4260"
     clip-rule="evenodd"
     fill-rule="evenodd">
    <title
       id="title4258">Coffee</title>
  </path>
  <circle
     cx="320.49"
     cy="828.011"
     style="fill: rgb(255, 255, 255); stroke: rgb(177, 177, 177); stroke-width: 3;"
     id="media_player.roku_3__4124cg078650"
     r="22.55"
     transform="matrix(0, -0.997059, 0.997062, 0, -20.50527, 666.784546)">
    <title
       id="title4262">Projector Circle</title>
  </circle>
  <path
     d="M 811.471 337.07 C 809.693 337.07 807.962 337.62 806.498 338.644 L 792.588 338.644 C 790.842 338.644 789.44 340.045 789.44 341.791 L 789.44 351.233 C 789.44 352.978 790.842 354.378 792.588 354.378 L 794.162 354.378 L 794.162 355.953 C 794.162 356.823 794.865 357.526 795.735 357.526 L 798.883 357.526 C 799.75 357.526 800.456 356.823 800.456 355.953 L 800.456 354.378 L 809.898 354.378 L 809.898 355.953 C 809.898 356.823 810.6 357.526 811.471 357.526 L 814.618 357.526 C 815.486 357.526 816.192 356.823 816.192 355.953 L 816.192 354.378 L 817.765 354.378 C 819.512 354.378 820.913 352.978 820.913 351.233 L 820.913 341.791 C 820.913 340.045 819.512 338.644 817.765 338.644 L 816.428 338.644 C 814.981 337.62 813.249 337.07 811.471 337.07 M 811.471 339.429 C 814.514 339.429 816.978 341.896 816.978 344.938 C 816.978 347.98 814.514 350.445 811.471 350.445 C 808.429 350.445 805.964 347.98 805.964 344.938 C 805.964 341.896 808.429 339.429 811.471 339.429 M 792.588 341.791 L 798.883 341.791 L 798.883 343.364 L 792.588 343.364 L 792.588 341.791 M 811.471 341.791 C 809.732 341.791 808.324 343.202 808.324 344.938 C 808.324 346.676 809.732 348.086 811.471 348.086 C 813.207 348.086 814.618 346.676 814.618 344.938 C 814.618 343.202 813.207 341.791 811.471 341.791 M 792.588 344.938 L 798.883 344.938 L 798.883 346.512 L 792.588 346.512 L 792.588 344.938 M 792.588 348.086 L 798.883 348.086 L 798.883 349.657 L 792.588 349.657 L 792.588 348.086 Z"
     style="fill: rgb(177, 177, 177);"
     id="path4268">
    <title
       id="title4266">Projector</title>
  </path>
  <ellipse
     cx="184.593"
     cy="329.874"
     rx="22.484"
     ry="22.484"
     style="fill: rgb(255, 255, 255); stroke: rgb(177, 177, 177); stroke-width: 3;"
     transform="matrix(0, -1, 1, 0, 469.432617, 233.349751)"
     id="ellipse4272">
    <title
       id="title4270">Stereo Circle</title>
  </ellipse>
  <path
     d="M 803.123 36.474 C 801.508 36.474 797.261 39.736 794.027 42.997 C 791.15 42.832 787.533 42.868 786.977 43.467 C 785.782 44.754 786.378 53.771 786.977 54.279 C 787.463 54.687 791.577 55.022 794.594 54.872 C 797.934 58.132 802.058 61.345 803.254 61.345 C 804.703 61.345 803.799 58.779 803.799 48.75 C 803.798 39.208 804.572 36.474 803.123 36.474 Z M 807.046 44.191 C 806.683 43.828 806.093 43.83 805.728 44.191 C 805.365 44.554 805.365 45.143 805.728 45.504 C 807.775 47.545 807.775 50.866 805.728 52.904 C 805.365 53.268 805.365 53.857 805.728 54.219 C 805.911 54.4 806.15 54.491 806.388 54.491 C 806.626 54.491 806.864 54.4 807.046 54.219 C 809.819 51.455 809.819 46.955 807.046 44.191 Z M 812.093 49.205 C 812.093 46.279 810.821 43.532 808.51 41.469 C 808.128 41.126 807.537 41.159 807.195 41.542 C 806.852 41.924 806.884 42.511 807.268 42.853 C 809.177 44.557 810.229 46.814 810.229 49.205 C 810.229 51.599 809.177 53.855 807.268 55.558 C 806.884 55.901 806.852 56.488 807.195 56.87 C 807.379 57.076 807.633 57.18 807.89 57.18 C 808.111 57.18 808.334 57.102 808.51 56.943 C 810.821 54.881 812.093 52.134 812.093 49.205 Z"
     style="fill: rgb(177, 177, 177);"
     id="path4276">
    <title
       id="title4274">Stereo</title>
  </path>
  <circle
     cx="185.138"
     cy="330.849"
     style="fill: rgb(255, 255, 255); stroke: rgb(177, 177, 177); stroke-width: 3;"
     transform="matrix(0, -0.997058, 0.997059, 0, 216.136154, 233.662918)"
     id="media_player.vlc_tts"
     r="22.549999">
    <title
       id="title4278">Pi Circle</title>
  </circle>
  <path
     d="M 549.829 35.789 C 548.213 35.789 543.966 39.05 540.733 42.311 C 537.855 42.146 534.237 42.181 533.682 42.781 C 532.488 44.07 533.083 53.085 533.682 53.592 C 534.167 54.002 538.281 54.336 541.299 54.186 C 544.639 57.447 548.763 60.661 549.958 60.661 C 551.408 60.661 550.505 58.092 550.505 48.064 C 550.504 38.522 551.277 35.789 549.829 35.789 Z M 553.751 43.505 C 553.388 43.142 552.798 43.143 552.434 43.505 C 552.07 43.869 552.07 44.457 552.434 44.82 C 554.48 46.859 554.48 50.18 552.434 52.22 C 552.07 52.583 552.07 53.171 552.434 53.534 C 552.617 53.715 552.855 53.805 553.093 53.805 C 553.331 53.805 553.57 53.714 553.751 53.534 C 556.524 50.769 556.524 46.269 553.751 43.505 Z M 558.799 48.519 C 558.799 45.593 557.526 42.845 555.216 40.784 C 554.834 40.44 554.243 40.473 553.899 40.857 C 553.558 41.237 553.589 41.827 553.973 42.167 C 555.883 43.871 556.935 46.128 556.935 48.519 C 556.935 50.913 555.883 53.169 553.973 54.872 C 553.589 55.214 553.558 55.803 553.899 56.183 C 554.084 56.39 554.338 56.494 554.595 56.494 C 554.816 56.494 555.038 56.416 555.216 56.257 C 557.526 54.195 558.799 51.448 558.799 48.519 Z"
     style="fill: rgb(177, 177, 177);"
     id="path4284">
    <title
       id="title4282">Pi</title>
  </path>
  <circle
     cx="185.138"
     cy="330.849"
     style="fill: rgb(255, 255, 255); stroke: rgb(177, 177, 177); stroke-width: 3;"
     transform="matrix(0, -0.997058, 0.997059, 0, -49.973907, 327.89856)"
     id="switch.bedroom_fan"
     r="22.55">
    <title
       id="title4286">Fan Circle</title>
  </circle>
  <path
     d="M 291.637 138.726 C 290.989 138.726 286.68 139.25 283.988 140.779 C 283.542 140.229 282.991 139.775 282.353 139.45 C 282.607 138.183 283.069 136.164 284.845 133.201 C 285.832 131.558 285.395 130.29 285.054 129.678 C 284.118 128.026 281.838 127.441 280.168 127.441 C 277.458 127.441 275.247 129.643 275.247 132.361 C 275.247 132.999 275.762 137.204 277.24 139.905 C 276.575 140.403 276.033 141.05 275.692 141.811 C 274.416 141.557 272.423 141.067 269.529 139.336 C 268.857 138.935 268.184 138.734 267.528 138.734 C 265.062 138.734 263.77 141.392 263.77 144.023 C 263.77 146.731 265.972 148.944 268.691 148.944 C 269.337 148.944 273.647 148.419 276.339 146.898 C 276.864 147.553 277.528 148.078 278.315 148.393 C 278.052 149.669 277.554 151.645 275.859 154.468 C 274.871 156.111 275.307 157.379 275.649 157.991 C 276.584 159.643 278.865 160.228 280.535 160.228 C 283.245 160.228 285.456 158.025 285.456 155.308 C 285.456 154.651 284.915 150.246 283.35 147.553 C 283.891 147.091 284.337 146.513 284.643 145.858 C 285.919 146.112 287.912 146.601 290.806 148.332 C 291.479 148.734 292.152 148.935 292.808 148.935 C 295.273 148.935 296.566 146.277 296.566 143.647 C 296.549 140.928 294.346 138.726 291.637 138.726 Z M 281.802 143.821 C 281.802 144.721 281.068 145.464 280.159 145.464 C 279.259 145.464 278.516 144.731 278.516 143.821 C 278.516 142.921 279.25 142.186 280.159 142.186 C 281.059 142.186 281.802 142.921 281.802 143.821 Z"
     style="fill: rgb(177, 177, 177);"
     id="path4292"
     transform="matrix(0, -1, 1, 0, 136.333493, 424.002517)">
    <title
       id="title4290">Fan</title>
  </path>
  <circle
     cx="502.738"
     cy="991.505"
     style="fill: rgb(255, 255, 255); stroke: rgb(177, 177, 177); stroke-width: 3;"
     id="switch.aquarium"
     r="22.55"
     transform="matrix(0, -0.997058, 0.997059, 0, -20.503065, 666.783813)">
    <title
       id="title4294">Aquarium Circl</title>
  </circle>
  <path
     d="M 967.259 152.925 C 964.698 152.945 962.184 153.764 960.055 155.296 C 959.876 155.425 959.769 155.632 959.754 155.854 C 959.745 156.078 959.838 156.292 960.004 156.439 C 960.409 156.787 960.78 157.156 961.113 157.538 C 961.515 158 961.876 158.497 962.195 159.021 C 960.803 159.941 959.546 161.075 958.484 162.398 C 956.949 160.491 954.995 158.955 952.723 157.892 C 952.243 157.663 951.679 157.699 951.229 157.986 C 950.783 158.272 950.507 158.767 950.507 159.3 L 950.507 171.306 C 950.507 171.837 950.781 172.335 951.229 172.62 C 951.482 172.78 951.774 172.862 952.064 172.862 C 952.291 172.862 952.516 172.814 952.723 172.717 C 954.995 171.652 956.951 170.115 958.487 168.206 C 960.396 170.583 962.934 172.361 965.778 173.353 C 965.842 173.898 965.764 174.496 965.541 175.093 C 965.515 175.157 965.483 175.218 965.452 175.278 C 965.449 175.285 965.382 175.419 965.382 175.419 C 965.298 175.615 965.295 175.835 965.382 176.031 C 965.467 176.226 965.635 176.373 965.842 176.432 C 966.339 176.577 966.854 176.651 967.371 176.651 C 969.315 176.651 970.96 175.645 971.485 174.274 C 971.822 174.769 972.03 175.404 972.073 176.105 C 972.088 176.18 972.073 176.255 972.073 176.33 L 972.073 176.47 C 972.068 176.686 972.157 176.892 972.316 177.038 C 972.45 177.158 972.624 177.223 972.803 177.223 L 972.792 177.219 L 972.893 177.219 C 973.41 177.146 973.909 177.004 974.376 176.796 C 975.388 176.345 976.214 175.629 976.706 174.776 C 977.036 174.203 977.196 173.61 977.18 173.039 C 980.469 171.686 983.284 169.261 985.099 166.069 C 985.374 165.594 985.374 165.007 985.099 164.53 C 983.244 161.271 980.346 158.81 976.962 157.476 C 974.902 154.972 971.919 153.351 968.687 152.996 C 968.21 152.946 967.734 152.921 967.259 152.925 Z M 967.407 154.382 C 967.78 154.384 968.153 154.407 968.526 154.448 C 970.518 154.665 972.401 155.427 973.975 156.619 C 973.023 156.442 972.05 156.351 971.065 156.351 C 968.369 156.351 965.758 157.032 963.452 158.273 C 963.087 157.674 962.674 157.105 962.213 156.577 C 962.039 156.376 961.855 156.177 961.66 155.983 C 963.408 154.923 965.394 154.37 967.407 154.382 Z M 971.067 159.465 C 971.848 159.465 972.62 159.537 973.374 159.674 C 972.369 161.518 971.844 163.506 971.844 165.513 C 971.844 167.399 972.291 169.226 973.174 170.964 C 972.484 171.079 971.779 171.139 971.067 171.139 C 966.698 171.139 962.615 168.922 960.211 165.302 C 962.615 161.681 966.698 159.465 971.067 159.465 Z M 974.852 160.031 C 977.715 160.907 980.233 162.758 981.923 165.302 C 980.194 167.904 977.598 169.781 974.652 170.63 C 973.759 168.998 973.305 167.283 973.305 165.513 C 973.305 163.63 973.839 161.757 974.852 160.031 Z M 953.621 162.021 C 954.853 162.922 955.914 164.029 956.757 165.302 C 955.914 166.575 954.853 167.681 953.621 168.583 L 953.621 162.021 Z M 976.59 163.55 C 975.911 163.55 975.359 164.102 975.359 164.783 C 975.359 165.464 975.911 166.015 976.59 166.015 C 977.274 166.015 977.824 165.464 977.824 164.783 C 977.824 164.102 977.274 163.55 976.59 163.55 Z M 975.655 173.579 C 975.61 173.732 975.54 173.888 975.451 174.043 C 975.117 174.623 974.512 175.14 973.794 175.46 C 973.697 175.503 973.6 175.543 973.502 175.577 C 973.428 175.057 973.285 174.569 973.081 174.123 C 973.957 174.012 974.818 173.83 975.655 173.579 Z M 967.262 173.792 C 968.106 173.998 968.971 174.137 969.848 174.204 C 969.304 174.843 968.2 175.267 967.055 175.177 C 967.186 174.712 967.256 174.245 967.262 173.792 Z"
     style="fill: rgb(177, 177, 177);"
     id="path4300">
    <title
       id="title4298">Aquarium</title>
  </path>
  <circle
     cx="185.138"
     cy="330.851"
     style="fill: rgb(255, 255, 255); stroke: rgb(177, 177, 177); stroke-width: 3;"
     transform="matrix(0, -0.997058, 0.997059, 0, 637.895691, 298.386505)"
     id="switch.grow_light"
     r="22.55">
    <title
       id="title4302">Aquaponic Circle</title>
  </circle>
  <path
     d="M 964.957 112.594 C 966.208 113.618 967.182 116.696 967.624 119.169 L 969.672 119.169 C 970.116 117.206 970.976 115.439 971.794 114.474 C 981.093 117.746 980.263 108.12 983.204 101.943 C 976.942 105.022 966.039 101.66 969.774 113.217 C 972.41 108.669 975.26 106.644 981.415 103.645 C 975.4 107.011 970.686 111.822 968.757 117.564 C 968.152 115.045 967.344 113.47 966.421 111.799 C 968.384 101.91 963.355 100.519 952.302 101.012 C 956.503 106.065 952.275 114.091 964.957 112.594 L 964.957 112.594 Z M 958.435 120.235 L 965.772 129.745 L 971.656 129.745 L 978.994 120.235 L 969.659 120.235 C 970.3 120.48 970.756 120.857 971.172 122.234 C 971.463 123.193 971.821 123.677 972.59 123.81 C 973.372 123.945 974.304 124.003 975.221 124.059 C 974.292 124.169 973.488 124.233 972.59 124.193 C 971.497 124.146 971.195 123.968 970.491 122.435 C 970.176 121.751 969.777 121.131 969.015 121.131 C 968.943 122.49 968.797 123.407 969.982 124.343 C 968.48 123.656 968.268 123.029 968.308 121.171 C 967.539 121.348 967.336 121.879 967.119 122.622 C 966.718 123.994 966.418 124.302 965.473 124.675 C 964.375 125.11 964.422 125.596 964.833 126.177 C 965.521 127.155 965.798 126.943 966.954 126.909 C 965.86 127.237 965.3 127.379 964.503 126.51 C 963.818 125.765 963.568 125.007 965.021 124.237 C 965.744 123.853 966.124 123.511 966.368 122.407 C 966.589 121.393 966.754 120.65 967.737 120.235 L 958.435 120.235 Z"
     style="fill: rgb(177, 177, 177);"
     id="path4308"
     clip-rule="evenodd"
     fill-rule="evenodd">
    <title
       id="title4306">Aquaponic</title>
  </path>
  <circle
     cx="660.47302"
     cy="574.80701"
     style="fill:#ffffff;stroke:#b1b1b1;stroke-width:3"
     transform="matrix(0,-0.999999,1,0,-151.4736,806.23227)"
     id="switch.string_lights"
     r="38.049" />
  <path
     d="M 437.063 137.355 C 437.063 145.213 430.527 151.582 422.465 151.582 C 414.403 151.582 407.867 145.213 407.867 137.355 C 407.867 129.496 414.403 123.126 422.465 123.126 C 430.527 123.126 437.063 129.496 437.063 137.355 Z M 416.125 147.671 L 429.471 147.671 L 429.471 156.587 L 416.125 156.587 L 416.125 147.671 Z"
     style="fill: rgb(255, 255, 255);"
     id="path94">
    <title
       id="title92">WHITE FILL</title>
  </path>
  <path
     d="M 422.943 120.103 C 431.972 120.103 439.289 127.42 439.289 136.447 C 439.289 142.003 436.511 146.883 432.283 149.849 L 432.283 155.126 C 432.283 156.415 431.238 157.46 429.95 157.46 L 415.94 157.46 C 414.651 157.46 413.604 156.415 413.604 155.126 L 413.604 149.849 C 409.38 146.883 406.601 142.003 406.601 136.447 C 406.601 127.42 413.918 120.103 422.943 120.103 M 415.94 164.465 L 415.94 162.129 L 429.95 162.129 L 429.95 164.465 C 429.95 165.754 428.905 166.8 427.615 166.8 L 418.276 166.8 C 416.985 166.8 415.94 165.754 415.94 164.465 M 422.943 124.771 C 416.498 124.771 411.271 129.999 411.271 136.447 C 411.271 141.233 414.143 145.342 418.276 147.14 L 418.276 152.79 L 427.615 152.79 L 427.615 147.14 C 431.747 145.342 434.619 141.233 434.619 136.447 C 434.619 129.999 429.393 124.771 422.943 124.771 Z"
     style="fill: rgb(177, 177, 177);"
     id="path4312" />
  <circle
     cx="669.321"
     cy="582.555"
     style="fill: rgb(255, 255, 255); stroke: rgb(177, 177, 177); stroke-width: 3;"
     transform="matrix(0, -0.986791, 0.986793, 0, -490.569214, 807.732422)"
     id="light.closet"
     r="38.558" />
  <path
     d="M 97.11 139.238 C 97.11 147.096 90.575 153.467 82.513 153.467 C 74.451 153.467 67.914 147.096 67.914 139.238 C 67.914 131.379 74.451 125.011 82.513 125.011 C 90.575 125.011 97.11 131.379 97.11 139.238 Z M 76.174 149.554 L 89.519 149.554 L 89.519 158.471 L 76.174 158.471 L 76.174 149.554 Z"
     style="fill: rgb(255, 255, 255);"
     id="path101">
    <title
       id="title99">WHITE FILL</title>
  </path>
  <path
     d="M 82.88 123.595 C 91.907 123.595 99.224 130.912 99.224 139.94 C 99.224 145.496 96.447 150.377 92.219 153.341 L 92.219 158.619 C 92.219 159.907 91.174 160.953 89.885 160.953 L 75.877 160.953 C 74.587 160.953 73.54 159.907 73.54 158.619 L 73.54 153.341 C 69.316 150.377 66.537 145.496 66.537 139.94 C 66.537 130.912 73.855 123.595 82.88 123.595 M 75.877 167.957 L 75.877 165.623 L 89.885 165.623 L 89.885 167.957 C 89.885 169.246 88.84 170.292 87.552 170.292 L 78.212 170.292 C 76.922 170.292 75.877 169.246 75.877 167.957 M 82.88 128.265 C 76.434 128.265 71.206 133.492 71.206 139.94 C 71.206 144.726 74.079 148.834 78.212 150.632 L 78.212 156.283 L 87.552 156.283 L 87.552 150.632 C 91.683 148.834 94.556 144.726 94.556 139.94 C 94.556 133.492 89.329 128.265 82.88 128.265 Z"
     id="path4320"
     style="fill: rgb(177, 177, 177);" />
  <circle
     cx="669.32"
     cy="582.509"
     style="fill: rgb(255, 255, 255); stroke: rgb(177, 177, 177); stroke-width: 3;"
     transform="matrix(0, -0.986791, 0.986793, 0, -370.843109, 955.298767)"
     id="light.entry"
     r="38.558" />
  <path
     d="M 217.241 287.148 C 217.241 295.005 210.705 301.375 202.643 301.375 C 194.581 301.375 188.045 295.005 188.045 287.148 C 188.045 279.289 194.581 272.919 202.643 272.919 C 210.705 272.919 217.241 279.289 217.241 287.148 Z M 196.304 297.463 L 209.649 297.463 L 209.649 306.38 L 196.304 306.38 L 196.304 297.463 Z"
     style="fill: rgb(255, 255, 255);"
     id="path107">
    <title
       id="title105">WHITE FILL</title>
  </path>
  <path
     d="M 202.579 271.163 C 211.606 271.163 218.924 278.48 218.924 287.508 C 218.924 293.064 216.146 297.943 211.919 300.909 L 211.919 306.186 C 211.919 307.475 210.874 308.521 209.584 308.521 L 195.576 308.521 C 194.287 308.521 193.24 307.475 193.24 306.186 L 193.24 300.909 C 189.015 297.943 186.236 293.064 186.236 287.508 C 186.236 278.48 193.554 271.163 202.579 271.163 M 195.576 315.525 L 195.576 313.19 L 209.584 313.19 L 209.584 315.525 C 209.584 316.814 208.539 317.86 207.25 317.86 L 197.91 317.86 C 196.621 317.86 195.576 316.814 195.576 315.525 M 202.579 275.832 C 196.133 275.832 190.905 281.059 190.905 287.508 C 190.905 292.294 193.778 296.402 197.91 298.2 L 197.91 303.85 L 207.25 303.85 L 207.25 298.2 C 211.382 296.402 214.255 292.294 214.255 287.508 C 214.255 281.059 209.027 275.832 202.579 275.832 Z"
     style="fill: rgb(177, 177, 177);"
     id="path4324" />
  <circle
     cx="669.321"
     cy="582.563"
     style="fill: rgb(255, 255, 255); stroke: rgb(177, 177, 177); stroke-width: 3;"
     transform="matrix(0, -0.986791, 0.986792, 0, -370.898071, 1073.283325)"
     id="switch.bathroom_light"
     r="38.558" />
  <path
     d="M 216.873 405.713 C 216.873 413.571 210.338 419.94 202.275 419.94 C 194.213 419.94 187.678 413.571 187.678 405.713 C 187.678 397.854 194.213 391.484 202.275 391.484 C 210.338 391.484 216.873 397.854 216.873 405.713 Z M 195.936 416.028 L 209.282 416.028 L 209.282 424.944 L 195.936 424.944 L 195.936 416.028 Z"
     style="fill: rgb(255, 255, 255);"
     id="path113">
    <title
       id="title111">WHITE FILL</title>
  </path>
  <path
     d="M 202.554 389.146 C 211.581 389.146 218.898 396.464 218.898 405.491 C 218.898 411.046 216.121 415.927 211.893 418.892 L 211.893 424.17 C 211.893 425.458 210.848 426.504 209.559 426.504 L 195.551 426.504 C 194.261 426.504 193.214 425.458 193.214 424.17 L 193.214 418.892 C 188.99 415.927 186.211 411.046 186.211 405.491 C 186.211 396.464 193.529 389.146 202.554 389.146 M 195.551 433.508 L 195.551 431.173 L 209.559 431.173 L 209.559 433.508 C 209.559 434.798 208.514 435.844 207.226 435.844 L 197.886 435.844 C 196.596 435.844 195.551 434.798 195.551 433.508 M 202.554 393.815 C 196.108 393.815 190.88 399.043 190.88 405.491 C 190.88 410.277 193.753 414.386 197.886 416.183 L 197.886 421.833 L 207.226 421.833 L 207.226 416.183 C 211.357 414.386 214.23 410.277 214.23 405.491 C 214.23 399.043 209.003 393.815 202.554 393.815 Z"
     style="fill: rgb(177, 177, 177);"
     id="path4329" />
  <circle
     cx="669.321"
     cy="582.566"
     style="fill: rgb(255, 255, 255); stroke: rgb(177, 177, 177); stroke-width: 3;"
     transform="matrix(0, -0.986791, 0.986793, 0, -156.529709, 1069.512329)"
     id="switch.kitchen_lights"
     r="38.558" />
  <path
     d="M 431.509 400.939 C 431.509 408.797 424.974 415.167 416.911 415.167 C 408.85 415.167 402.315 408.797 402.315 400.939 C 402.315 393.08 408.85 386.711 416.911 386.711 C 424.974 386.711 431.509 393.08 431.509 400.939 Z M 410.572 411.255 L 423.918 411.255 L 423.918 420.171 L 410.572 420.171 L 410.572 411.255 Z"
     style="fill: rgb(255, 255, 255);"
     id="path119">
    <title
       id="title117">WHITE FILL</title>
  </path>
  <path
     d="M 416.925 385.375 C 425.952 385.375 433.27 392.692 433.27 401.719 C 433.27 407.275 430.492 412.156 426.264 415.121 L 426.264 420.398 C 426.264 421.687 425.22 422.733 423.93 422.733 L 409.922 422.733 C 408.632 422.733 407.585 421.687 407.585 420.398 L 407.585 415.121 C 403.36 412.156 400.582 407.275 400.582 401.719 C 400.582 392.692 407.9 385.375 416.925 385.375 M 409.922 429.737 L 409.922 427.402 L 423.93 427.402 L 423.93 429.737 C 423.93 431.026 422.885 432.072 421.596 432.072 L 412.256 432.072 C 410.966 432.072 409.922 431.026 409.922 429.737 M 416.925 390.045 C 410.479 390.045 405.251 395.272 405.251 401.719 C 405.251 406.505 408.124 410.614 412.256 412.412 L 412.256 418.063 L 421.596 418.063 L 421.596 412.412 C 425.728 410.614 428.6 406.505 428.6 401.719 C 428.6 395.272 423.373 390.045 416.925 390.045 Z"
     style="fill: rgb(177, 177, 177);"
     id="path4333" />
  <circle
     cx="662.42798"
     cy="576.55701"
     style="fill: rgb(255, 255, 255); stroke: rgb(177, 177, 177); stroke-width: 3;"
     transform="matrix(0, -0.997059, 0.997061, 0, 34.19421, 1065.524658)"
     id="switch.office"
     r="38.160999" />
  <path
     d="M 622.794 398.488 C 622.794 406.346 616.257 412.715 608.195 412.715 C 600.133 412.715 593.597 406.346 593.597 398.488 C 593.597 390.629 600.133 384.259 608.195 384.259 C 616.257 384.259 622.794 390.629 622.794 398.488 Z M 601.856 408.803 L 615.201 408.803 L 615.201 417.72 L 601.856 417.72 L 601.856 408.803 Z"
     style="fill: rgb(255, 255, 255);"
     id="path125">
    <title
       id="title123">WHITE FILL</title>
  </path>
  <path
     d="M 607.644 381.386 C 616.672 381.386 623.989 388.704 623.989 397.732 C 623.989 403.287 621.211 408.168 616.984 411.134 L 616.984 416.411 C 616.984 417.698 615.939 418.744 614.649 418.744 L 600.641 418.744 C 599.352 418.744 598.305 417.698 598.305 416.411 L 598.305 411.134 C 594.081 408.168 591.302 403.287 591.302 397.732 C 591.302 388.704 598.619 381.386 607.644 381.386 M 600.641 425.749 L 600.641 423.414 L 614.649 423.414 L 614.649 425.749 C 614.649 427.038 613.604 428.084 612.315 428.084 L 602.976 428.084 C 601.686 428.084 600.641 427.038 600.641 425.749 M 607.644 386.056 C 601.198 386.056 595.97 391.284 595.97 397.732 C 595.97 402.518 598.843 406.627 602.976 408.424 L 602.976 414.074 L 612.315 414.074 L 612.315 408.424 C 616.447 406.627 619.32 402.518 619.32 397.732 C 619.32 391.284 614.094 386.056 607.644 386.056 Z"
     style="fill: rgb(177, 177, 177);"
     id="path4337" />
  <circle
     cx="538.22"
     cy="832.552"
     style="fill: rgb(255, 255, 255); stroke: rgb(177, 177, 177); stroke-width: 3;"
     id="group.livingroom"
     r="38.558"
     transform="matrix(0, -0.986793, 0.986794, 0, -20.504313, 666.784973)" />
  <path
     d="M 814.08 128.471 C 814.08 136.329 807.544 142.699 799.482 142.699 C 791.42 142.699 784.884 136.329 784.884 128.471 C 784.884 120.612 791.42 114.243 799.482 114.243 C 807.544 114.243 814.08 120.612 814.08 128.471 Z M 793.143 138.787 L 806.488 138.787 L 806.488 147.703 L 793.143 147.703 L 793.143 138.787 Z"
     style="fill: rgb(255, 255, 255);"
     id="path131">
    <title
       id="title129">WHITE FILL</title>
  </path>
  <path
     d="M 799.639 112.016 C 808.666 112.016 815.983 119.334 815.983 128.361 C 815.983 133.917 813.205 138.798 808.978 141.763 L 808.978 147.04 C 808.978 148.328 807.933 149.374 806.644 149.374 L 792.636 149.374 C 791.346 149.374 790.299 148.328 790.299 147.04 L 790.299 141.763 C 786.075 138.798 783.296 133.917 783.296 128.361 C 783.296 119.334 790.614 112.016 799.639 112.016 M 792.636 156.378 L 792.636 154.044 L 806.644 154.044 L 806.644 156.378 C 806.644 157.668 805.599 158.713 804.31 158.713 L 794.971 158.713 C 793.681 158.713 792.636 157.668 792.636 156.378 M 799.639 116.686 C 793.193 116.686 787.965 121.913 787.965 128.361 C 787.965 133.147 790.838 137.256 794.971 139.053 L 794.971 144.704 L 804.31 144.704 L 804.31 139.053 C 808.442 137.256 811.315 133.147 811.315 128.361 C 811.315 121.913 806.088 116.686 799.639 116.686 Z"
     style="fill: rgb(177, 177, 177);"
     id="path4341" />
  <g
     transform="matrix(1.608241, 0, 0, 1.608241, 347.438171, -262.869171)"
     id="g4343" />
  <path
     d="M 130.035 464.137 C 132.273 464.137 132.317 466.954 132.317 467.075 L 132.317 467.071 C 132.317 466.954 132.275 464.137 130.035 464.137 Z"
     style="fill: rgb(177, 177, 177);"
     id="path4345"
     transform="matrix(-1, 0, 0, -1, 262.352005, 931.212029)" />
  <path
     d="M 135.021 459.109 C 125.571 459.053 117.761 449.728 117.761 438.266 C 117.761 438.271 117.761 438.276 117.761 438.281 C 117.761 449.749 125.568 459.069 135.021 459.125 C 144.476 459.068 152.281 449.719 152.281 438.251 C 152.281 438.25 152.281 438.249 152.281 438.247 C 152.281 449.714 144.475 459.053 135.021 459.109 Z"
     style="fill: rgb(177, 177, 177);"
     id="path4347"
     transform="matrix(-1, 0, 0, -1, 270.04201, 897.372029)" />
  <path
     d="M 141.631 459.567 C 138.693 459.567 137.878 462.456 137.878 463.99 L 137.856 468.609 C 137.856 468.609 137.856 468.609 137.856 468.609 L 137.917 463.99 C 137.917 462.456 138.693 459.567 141.631 459.567 Z"
     style="fill: rgb(177, 177, 177);"
     id="path4349"
     transform="matrix(-1, 0, 0, -1, 279.487003, 928.17602)" />
  <path
     d="M 118.531 496.233 C 118.526 496.282 118.515 496.339 118.506 496.393 C 118.516 496.338 118.526 496.282 118.531 496.233 Z"
     style="fill: rgb(177, 177, 177);"
     id="path4351"
     transform="matrix(-1, 0, 0, -1, 237.036978, 992.625977)" />
  <path
     d="M 118.575 496.02 C 118.569 496.051 118.557 496.085 118.549 496.119 C 118.556 496.085 118.569 496.051 118.575 496.02 Z"
     style="fill: rgb(177, 177, 177);"
     id="path4353"
     transform="matrix(-1, 0, 0, -1, 237.124007, 992.13895)" />
  <path
     d="M 118.498 496.51 C 118.496 496.534 118.494 496.563 118.492 496.588 C 118.493 496.563 118.496 496.533 118.498 496.51 Z"
     style="fill: rgb(177, 177, 177);"
     id="path4355"
     transform="matrix(-1, 0, 0, -1, 236.990004, 993.098039)" />
  <path
     d="M 153.635 486.678 C 153.559 479.774 148.729 457.857 147.909 454.261 C 149.65 453.956 151.013 453.36 151.901 452.358 C 153.117 450.989 153.069 449.5 153.069 449.19 L 153.069 436.816 L 135.117 436.816 L 134.944 436.816 L 117.015 436.816 L 117.015 449.19 C 117.015 449.499 116.956 451.042 118.171 452.412 C 119.061 453.414 120.406 453.955 122.145 454.26 C 121.325 457.857 116.505 479.774 116.427 486.678 L 116.425 486.678 C 116.425 486.678 116.425 487.029 116.425 487.06 C 116.425 487.09 116.425 486.678 116.425 487.445 L 116.427 487.445 C 116.512 498.952 124.685 509.15 134.658 509.261 L 134.658 509.266 C 134.658 509.266 135.013 509.264 135.042 509.263 C 135.071 509.264 135.426 509.266 135.426 509.266 L 135.426 509.261 C 145.399 509.15 153.552 498.952 153.635 487.445 L 153.639 487.445 C 153.639 486.678 153.638 487.09 153.638 487.06 C 153.638 487.029 153.639 486.678 153.639 486.678 L 153.635 486.678 Z M 119.277 451.331 C 118.365 450.324 118.469 449.263 118.473 449.221 L 118.479 438.35 L 134.944 438.35 L 135.117 438.35 L 151.535 438.35 L 151.535 449.221 L 151.564 449.245 C 151.566 449.259 151.575 449.351 151.572 449.492 C 151.572 449.515 151.568 449.543 151.567 449.571 C 151.565 449.608 151.564 449.645 151.559 449.688 C 151.553 449.738 151.542 449.794 151.533 449.85 C 151.527 449.888 151.522 449.922 151.515 449.964 C 151.508 449.994 151.499 450.029 151.489 450.061 C 151.396 450.445 151.202 450.914 150.787 451.375 C 149.805 452.462 147.953 452.925 145.431 452.925 L 135.216 452.925 L 135.206 452.925 L 124.631 452.925 C 122.109 452.925 120.258 452.419 119.277 451.331 Z M 152.302 486.961 C 152.302 498.43 144.496 507.778 135.042 507.834 C 125.588 507.778 117.783 498.458 117.783 486.99 C 117.783 486.985 117.783 486.98 117.783 486.975 C 117.783 486.97 117.783 486.965 117.783 486.96 C 117.783 479.725 122.862 457.479 123.545 454.484 C 123.883 454.506 124.269 454.459 124.631 454.459 L 135.206 454.459 L 135.216 454.459 L 145.431 454.459 C 145.795 454.459 146.192 454.506 146.53 454.484 C 147.212 457.48 152.302 479.718 152.302 486.953 C 152.302 486.955 152.302 486.955 152.302 486.957 C 152.302 486.958 152.302 486.959 152.302 486.961 Z"
     id="path4357"
     transform="matrix(-1, 0, 0, -1, 270.064032, 946.082001)"
     style="fill: rgb(214, 233, 239);" />
  <path
     d="M 118.575 496.02 C 121.098 496.02 122.951 495.556 123.93 494.469 C 124.346 494.009 124.54 493.54 124.633 493.156 C 124.539 493.531 124.343 493.999 123.918 494.469 C 122.938 495.556 121.098 496.02 118.575 496.02 Z"
     style="fill: rgb(177, 177, 177);"
     id="path4359"
     transform="matrix(-1, 0, 0, -1, 243.208024, 989.175995)" />
  <path
     d="M 118.549 496.119 C 118.543 496.157 118.539 496.191 118.53 496.232 C 118.538 496.191 118.543 496.157 118.549 496.119 Z"
     style="fill: rgb(177, 177, 177);"
     id="path4361"
     transform="matrix(-1, 0, 0, -1, 237.07901, 992.350983)" />
  <path
     d="M 118.505 496.392 C 118.503 496.431 118.502 496.467 118.497 496.512 C 118.502 496.467 118.503 496.433 118.505 496.392 Z"
     style="fill: rgb(177, 177, 177);"
     id="path4363"
     transform="matrix(-1, 0, 0, -1, 237.002003, 992.904005)" />
  <path
     d="M 118.528 496.86 C 118.531 496.72 118.522 496.627 118.522 496.614 L 118.492 496.589 L 118.522 496.669 C 118.522 496.68 118.53 496.75 118.528 496.86 Z"
     style="fill: rgb(177, 177, 177);"
     id="path4365"
     transform="matrix(-1, 0, 0, -1, 237.020602, 993.44898)" />
  <path
     d="M 146.556 491.579 C 146.556 491.585 146.556 491.589 146.556 491.595 C 146.556 484.347 151.599 462.098 152.281 459.104 C 151.599 462.099 146.556 484.345 146.556 491.579 Z"
     style="fill: rgb(177, 177, 177);"
     id="path4367"
     transform="matrix(-1, 0, 0, -1, 298.837017, 950.69894)" />
  <path
     d="M 117.761 459.125 C 118.444 462.12 123.488 484.358 123.488 491.596 C 123.488 491.595 123.488 491.594 123.488 491.592 C 123.488 484.358 118.444 462.12 117.761 459.125 Z"
     style="fill: rgb(177, 177, 177);"
     id="path4369"
     transform="matrix(-1, 0, 0, -1, 241.248979, 950.721033)" />
  <path
     d="M 137.845 453.737 L 135.201 453.737 L 134.842 453.737 L 132.198 453.737 C 129.262 453.737 128.488 456.626 128.488 458.16 L 128.424 462.78 C 128.424 465.72 131.198 468.064 134.073 468.523 C 134.265 468.553 134.457 468.574 134.649 468.588 L 134.649 468.609 C 134.649 468.609 134.961 468.6 135.032 468.598 C 135.103 468.6 135.416 468.609 135.416 468.609 L 135.416 468.588 C 138.484 468.374 141.63 465.915 141.63 462.782 L 141.603 458.158 C 141.601 456.626 140.779 453.737 137.845 453.737 Z M 140.073 458.339 L 140.082 462.849 C 140.082 465.218 137.366 467.107 135.01 467.217 C 132.653 467.107 129.928 465.191 129.928 462.82 L 129.911 458.22 C 129.913 458.098 129.958 455.272 132.197 455.272 L 134.841 455.272 L 135.2 455.272 L 137.844 455.272 C 140.084 455.272 140.018 458.09 140.018 458.206 L 140.018 458.339 L 140.073 458.339 Z"
     id="path4371"
     transform="matrix(-1, 0, 0, -1, 270.054009, 922.346033)"
     style="fill: rgb(214, 233, 239);" />
  <path
     d="M 135.035 464.123 C 132.679 464.013 129.948 462.098 129.948 459.728 L 129.927 455.165 L 129.948 459.756 C 129.948 462.128 132.679 464.027 135.035 464.137 C 137.39 464.027 140.122 462.107 140.122 459.739 L 140.139 455.163 L 140.139 455.162 L 140.122 459.731 C 140.122 462.099 137.391 464.013 135.035 464.123 Z"
     style="fill: rgb(177, 177, 177);"
     id="path4373"
     transform="matrix(-1, 0, 0, -1, 270.066008, 919.298942)" />
  <path
     d="M 135.893 453.824 L 135.893 453.826 C 135.893 456.766 138.668 459.109 141.543 459.567 C 138.668 459.108 135.893 456.765 135.893 453.824 Z"
     style="fill: rgb(177, 177, 177);"
     id="path4375"
     transform="matrix(-1, 0, 0, -1, 277.436022, 913.39096)" />
  <path
     d="M 135.403 441.041 L 135.403 441.024 C 135.403 441.024 135.08 441.032 135.02 441.033 C 134.96 441.032 134.636 441.024 134.636 441.024 L 134.636 441.041 C 126.965 441.231 120.443 447.476 120.443 454.862 C 120.443 468.131 125.431 475.504 134.636 475.695 L 134.636 475.714 C 134.636 475.714 134.958 475.705 135.02 475.704 C 135.081 475.705 135.403 475.714 135.403 475.714 L 135.403 475.695 C 144.609 475.504 149.599 468.133 149.599 454.863 C 149.599 447.475 143.074 441.231 135.403 441.041 Z M 135.007 474.279 C 124.318 474.16 122.065 463.673 122.065 454.862 C 122.065 448.309 128.093 442.561 135.008 442.462 C 141.926 442.561 147.954 448.309 147.954 454.862 C 147.953 463.673 145.698 474.16 135.007 474.279 Z"
     id="path4377"
     transform="matrix(-1, 0, 0, -1, 270.04201, 916.73796)"
     style="fill: rgb(214, 233, 239);" />
  <path
     d="M 76.305 466.124 L 76.305 462.115 C 76.305 461.561 75.857 461.112 75.303 461.112 L 68.286 461.112 L 68.286 458.106 C 68.286 457.551 67.836 457.102 67.283 457.102 L 63.273 457.102 C 62.721 457.102 62.271 457.551 62.271 458.106 L 62.271 461.112 L 55.255 461.112 C 54.701 461.112 54.252 461.561 54.252 462.115 L 54.252 466.124 C 54.252 466.678 54.701 467.127 55.255 467.127 L 75.303 467.127 C 75.857 467.127 76.305 466.678 76.305 466.124 Z M 74.3 465.122 L 56.256 465.122 L 56.256 463.117 L 63.273 463.117 C 63.827 463.117 64.276 462.668 64.276 462.115 L 64.276 459.108 L 66.281 459.108 L 66.281 462.115 C 66.281 462.668 66.729 463.117 67.283 463.117 L 74.3 463.117 L 74.3 465.122 Z"
     style="fill: rgb(177, 177, 177);"
     id="path4379"
     transform="matrix(-1, 0, 0, -1, 130.557003, 924.228989)" />
  <ellipse
     cx="12.03"
     cy="16.038"
     transform="matrix(NaN, NaN, NaN, NaN, NaN, NaN)"
     style="fill: rgb(177, 177, 177);"
     id="circle4381"
     r="1.59" />
  <ellipse
     cx="16.038"
     cy="16.038"
     transform="matrix(NaN, NaN, NaN, NaN, NaN, NaN)"
     style="fill: rgb(177, 177, 177);"
     id="circle4383"
     r="1.59" />
  <ellipse
     cx="20.05"
     cy="16.038"
     transform="matrix(NaN, NaN, NaN, NaN, NaN, NaN)"
     style="fill: rgb(177, 177, 177);"
     id="circle4385"
     r="1.59" />
  <ellipse
     cx="20.05"
     cy="20.049"
     transform="matrix(NaN, NaN, NaN, NaN, NaN, NaN)"
     style="fill: rgb(177, 177, 177);"
     id="circle4387"
     r="1.59" />
  <ellipse
     cx="20.05"
     cy="24.058"
     transform="matrix(NaN, NaN, NaN, NaN, NaN, NaN)"
     style="fill: rgb(177, 177, 177);"
     id="circle4389"
     r="1.59" />
  <ellipse
     cx="20.05"
     cy="28.068"
     transform="matrix(NaN, NaN, NaN, NaN, NaN, NaN)"
     style="fill: rgb(177, 177, 177);"
     id="circle4391"
     r="1.59" />
  <ellipse
     cx="20.05"
     cy="32.079"
     transform="matrix(NaN, NaN, NaN, NaN, NaN, NaN)"
     style="fill: rgb(177, 177, 177);"
     id="circle4393"
     r="1.59" />
  <ellipse
     cx="20.05"
     cy="36.087"
     transform="matrix(NaN, NaN, NaN, NaN, NaN, NaN)"
     style="fill: rgb(177, 177, 177);"
     id="circle4395"
     r="1.59" />
  <ellipse
     cx="4.01"
     cy="36.088"
     transform="matrix(NaN, NaN, NaN, NaN, NaN, NaN)"
     style="fill: rgb(177, 177, 177);"
     id="circle4397"
     r="1.59" />
  <ellipse
     cx="5.617"
     cy="32.077"
     transform="matrix(NaN, NaN, NaN, NaN, NaN, NaN)"
     style="fill: rgb(177, 177, 177);"
     id="circle4399"
     r="1.589" />
  <ellipse
     cx="7.22"
     cy="28.066"
     transform="matrix(NaN, NaN, NaN, NaN, NaN, NaN)"
     style="fill: rgb(177, 177, 177);"
     id="circle4401"
     r="1.589" />
  <ellipse
     cx="8.824"
     cy="24.058"
     transform="matrix(NaN, NaN, NaN, NaN, NaN, NaN)"
     style="fill: rgb(177, 177, 177);"
     id="circle4403"
     r="1.589" />
  <ellipse
     cx="10.427"
     cy="20.047"
     transform="matrix(NaN, NaN, NaN, NaN, NaN, NaN)"
     style="fill: rgb(177, 177, 177);"
     id="circle4405"
     r="1.375" />
  <ellipse
     cx="15.237"
     cy="20.05"
     transform="matrix(NaN, NaN, NaN, NaN, NaN, NaN)"
     style="fill: rgb(177, 177, 177);"
     id="circle4407"
     r="1.589" />
  <ellipse
     cx="14.436"
     cy="24.058"
     transform="matrix(NaN, NaN, NaN, NaN, NaN, NaN)"
     style="fill: rgb(177, 177, 177);"
     id="circle4409"
     r="1.589" />
  <ellipse
     cx="13.633"
     cy="28.068"
     transform="matrix(NaN, NaN, NaN, NaN, NaN, NaN)"
     style="fill: rgb(177, 177, 177);"
     id="circle4411"
     r="1.005" />
  <ellipse
     cx="12.831"
     cy="32.078"
     transform="matrix(NaN, NaN, NaN, NaN, NaN, NaN)"
     style="fill: rgb(177, 177, 177);"
     id="circle4413"
     r="1.589" />
  <ellipse
     cx="12.03"
     cy="36.087"
     transform="matrix(NaN, NaN, NaN, NaN, NaN, NaN)"
     style="fill: rgb(177, 177, 177);"
     id="circle4415"
     r="1.59" />
  <ellipse
     cx="28.067"
     cy="16.038"
     transform="matrix(NaN, NaN, NaN, NaN, NaN, NaN)"
     style="fill: rgb(177, 177, 177);"
     id="circle4417"
     r="1.59" />
  <ellipse
     cx="24.058"
     cy="16.038"
     transform="matrix(NaN, NaN, NaN, NaN, NaN, NaN)"
     style="fill: rgb(177, 177, 177);"
     id="circle4419"
     r="1.59" />
  <ellipse
     cx="36.087"
     cy="36.088"
     transform="matrix(NaN, NaN, NaN, NaN, NaN, NaN)"
     style="fill: rgb(177, 177, 177);"
     id="circle4421"
     r="1.59" />
  <ellipse
     cx="34.481"
     cy="32.077"
     transform="matrix(NaN, NaN, NaN, NaN, NaN, NaN)"
     style="fill: rgb(177, 177, 177);"
     id="circle4423"
     r="1.589" />
  <ellipse
     cx="32.876"
     cy="28.067"
     transform="matrix(NaN, NaN, NaN, NaN, NaN, NaN)"
     style="fill: rgb(177, 177, 177);"
     id="circle4425"
     r="1.589" />
  <ellipse
     cx="31.272"
     cy="24.058"
     transform="matrix(NaN, NaN, NaN, NaN, NaN, NaN)"
     style="fill: rgb(177, 177, 177);"
     id="circle4427"
     r="1.589" />
  <ellipse
     cx="29.669"
     cy="20.048"
     transform="matrix(NaN, NaN, NaN, NaN, NaN, NaN)"
     style="fill: rgb(177, 177, 177);"
     id="circle4429"
     r="1.589" />
  <ellipse
     cx="24.86"
     cy="20.05"
     transform="matrix(NaN, NaN, NaN, NaN, NaN, NaN)"
     style="fill: rgb(177, 177, 177);"
     id="circle4431"
     r="1.589" />
  <ellipse
     cx="25.663"
     cy="24.058"
     transform="matrix(NaN, NaN, NaN, NaN, NaN, NaN)"
     style="fill: rgb(177, 177, 177);"
     id="circle4433"
     r="1.589" />
  <ellipse
     cx="26.464"
     cy="28.068"
     transform="matrix(NaN, NaN, NaN, NaN, NaN, NaN)"
     style="fill: rgb(177, 177, 177);"
     id="circle4435"
     r="1.589" />
  <ellipse
     cx="27.267"
     cy="32.078"
     transform="matrix(NaN, NaN, NaN, NaN, NaN, NaN)"
     style="fill: rgb(177, 177, 177);"
     id="circle4437"
     r="1.589" />
  <ellipse
     cx="28.067"
     cy="36.088"
     transform="matrix(NaN, NaN, NaN, NaN, NaN, NaN)"
     style="fill: rgb(177, 177, 177);"
     id="circle4439"
     r="1.59" />
  <ellipse
     cx="184.593"
     cy="329.876"
     rx="22.484"
     ry="22.484"
     style="fill: rgb(255, 255, 255); stroke: rgb(177, 177, 177); stroke-width: 3;"
     transform="matrix(0, -1, 1.000001, 0, -247.712766, 480.735672)"
     id="ellipse4443">
    <title
       id="title4441">Pi Circle</title>
  </ellipse>
  <g
     transform="matrix(0, -0.372864, 0.372864, 0, 105.399437, 315.052856)"
     id="g4449">
    <path
       d="M 50 -93.762 C 26.6 -93.762 7.7 -59.962 7.7 -59.962 C 7.7 -59.962 26.6 -26.162 50 -26.162 C 73.4 -26.162 92.3 -59.962 92.3 -59.962 C 92.3 -59.962 73.4 -93.762 50 -93.762 Z M 50 -36.062 C 36.4 -36.062 22.7 -50.262 16.4 -59.962 C 16.4 -59.962 16.4 -59.962 16.4 -59.962 L 16.4 -59.962 C 22.7 -69.662 36.4 -83.862 50 -83.862 C 63.6 -83.862 77.3 -69.662 83.6 -59.962 C 83.6 -59.962 83.6 -59.962 83.6 -59.962 L 83.6 -59.962 C 77.3 -50.262 63.6 -36.062 50 -36.062 Z"
       style="fill: rgb(177, 177, 177);"
       id="path4445"
       transform="matrix(0, 1, -1, 0, -9.961984, -109.961981)" />
    <path
       d="M 65.3 -71.544 C 70.2 -63.044 67.3 -52.244 58.8 -47.344 C 50.3 -42.444 39.5 -45.344 34.6 -53.844 C 31.9 -58.444 31.6 -63.744 33.2 -68.444 L 50.3 -62.144 L 41.1 -78.044 C 49.6 -82.844 60.4 -79.944 65.3 -71.544 Z"
       style="fill: rgb(177, 177, 177);"
       id="path4447"
       transform="matrix(0, 1, -1, 0, -12.708076, -112.613792)" />
  </g>
  <circle
     cx="184.593"
     cy="329.87601"
     style="fill:#ffffff;stroke:#b1b1b1;stroke-width:3"
     transform="rotate(-90,108.73558,158.32988)"
     id="light.bedroom"
     r="22.483999">
    <title
       id="bx-title-1">Pi Circle</title>
  </circle>
  <path
     d="M 290.553 76.614 C 290.553 82.031 286.048 86.423 280.49 86.423 C 274.932 86.423 270.426 82.031 270.426 76.614 C 270.426 71.196 274.932 66.805 280.49 66.805 C 286.048 66.805 290.553 71.196 290.553 76.614 Z M 276.12 83.725 L 285.32 83.725 L 285.32 89.873 L 276.12 89.873 L 276.12 83.725 Z"
     style="fill: rgb(255, 255, 255);"
     id="path192">
    <title
       id="title190">WHITE FILL</title>
  </path>
  <path
     d="M 279.743 65.829 C 285.966 65.829 291.011 70.874 291.011 77.098 C 291.011 80.928 289.096 84.293 286.181 86.336 L 286.181 89.975 C 286.181 90.863 285.461 91.584 284.572 91.584 L 274.915 91.584 C 274.026 91.584 273.304 90.863 273.304 89.975 L 273.304 86.336 C 270.392 84.293 268.476 80.928 268.476 77.098 C 268.476 70.874 273.521 65.829 279.743 65.829 M 274.915 96.413 L 274.915 94.804 L 284.572 94.804 L 284.572 96.413 C 284.572 97.301 283.852 98.022 282.964 98.022 L 276.525 98.022 C 275.636 98.022 274.915 97.301 274.915 96.413 M 279.743 69.049 C 275.299 69.049 271.695 72.652 271.695 77.098 C 271.695 80.397 273.676 83.229 276.525 84.469 L 276.525 88.364 L 282.964 88.364 L 282.964 84.469 C 285.812 83.229 287.793 80.397 287.793 77.098 C 287.793 72.652 284.189 69.049 279.743 69.049 Z"
     id="path-1"
     style="fill: rgb(177, 177, 177);" />
</svg>
